<?xml version="1.0" encoding="utf-8"?>
<!-- Generator: Adobe Illustrator 16.0.3, SVG Export Plug-In . SVG Version: 6.00 Build 0)  -->
<!DOCTYPE svg PUBLIC "-//W3C//DTD SVG 1.1//EN" "http://www.w3.org/Graphics/SVG/1.1/DTD/svg11.dtd">
<svg version="1.1" id="OBJECTS" xmlns="http://www.w3.org/2000/svg" xmlns:xlink="http://www.w3.org/1999/xlink" x="0px" y="0px"
	 width="303.218px" height="239.329px" viewBox="0 0 303.218 239.329" enable-background="new 0 0 303.218 239.329"
	 xml:space="preserve">
<g>
	<g>
		<g>
			<path fill="#FCECD2" d="M57.212,121.291C63.045,62.4,114.261,19.515,171.604,25.506c57.345,5.99,99.103,58.587,93.27,117.479
				c-5.833,58.891-57.049,101.775-114.393,95.785C93.137,232.779,51.379,180.183,57.212,121.291z"/>
			<ellipse fill="#FBEBD1" cx="61.773" cy="65.27" rx="61.773" ry="63.439"/>
			<path fill="#FBEBD1" d="M267.704,176.691c-2.209-9.942,3.85-19.842,13.531-22.109s19.32,3.953,21.528,13.896
				c2.209,9.942-3.85,19.842-13.531,22.109C279.551,192.856,269.912,186.634,267.704,176.691z"/>
		</g>
		<g>
			<g>
				<g>
					
						<rect x="259.683" y="104.623" transform="matrix(0.9654 -0.2607 0.2607 0.9654 -19.0383 72.6688)" fill="#E8677A" width="9.504" height="6.967"/>
					<g>
						
							<rect x="266.606" y="101.39" transform="matrix(-0.2862 -0.9582 0.9582 -0.2862 247.8826 397.7859)" fill="#F5C041" width="11" height="10.347"/>
						<path fill="#342D3A" d="M277.1,75.502l9.683,32.418l-13.574,4.055l-3.148-10.54l4.041-14.426
							c0.212-2.416-2.263-9.935,0.061-10.629L277.1,75.502z"/>
						
							<rect x="266.541" y="89.674" transform="matrix(-0.2862 -0.9582 0.9582 -0.2862 277.1394 388.9767)" fill="#F5C041" width="33.833" height="3.167"/>
					</g>
					<g>
						<path fill="none" stroke="#2E353B" stroke-linecap="round" stroke-linejoin="round" stroke-miterlimit="10" d="
							M261.478,94.045c-0.852-0.617-1.723-1.764-1.083-2.599c0.482-0.632,1.456-0.514,2.218-0.287
							c3.394,1.013,7.396,3.19,9.233,6.289C268.541,98.189,264.14,95.978,261.478,94.045z"/>
						<path fill="none" stroke="#2E353B" stroke-linecap="round" stroke-linejoin="round" stroke-miterlimit="10" d="M267.29,87.55
							c-0.179-1.036-0.003-2.465,1.038-2.617c0.787-0.115,1.402,0.648,1.789,1.343c1.724,3.093,3.068,7.447,2.224,10.948
							C269.456,95.448,267.849,90.792,267.29,87.55z"/>
					</g>
				</g>
				<path fill="#1E3184" d="M140.656,172.864l-5.172-9.082l36.489-43.178c3.231-3.823,7.748-6.335,12.701-7.063l77.603-11.409
					l3.848,13.17l-73.677,21.527c-12.942,17.488-21.551,28.94-27.359,36.5C158.862,181.434,146.573,181.198,140.656,172.864z"/>
				
					<path fill="none" stroke="#FFFFFF" stroke-width="0.75" stroke-linecap="round" stroke-linejoin="round" stroke-miterlimit="10" d="
					M261.218,106.563l-73.882,9.816c-3.63,0.481-6.943,2.317-9.277,5.14l-36.252,43.824"/>
			</g>
			<g>
				<path fill="#4655B1" d="M136.099,175.821l-3.707-3.968l58.524-54.681c4.336-4.052,11.135-3.82,15.187,0.516l10.146,10.858
					l-51.634,48.243C156.473,184.396,143.706,183.963,136.099,175.821z"/>
				
					<line fill="none" stroke="#FFFFFF" stroke-width="0.75" stroke-linecap="round" stroke-linejoin="round" stroke-miterlimit="10" x1="191.234" y1="129.115" x2="144.028" y2="174.583"/>
			</g>
			<g>
				<g>
					<g>
						<circle fill="#E8677A" cx="177.071" cy="80.246" r="7.395"/>
						
							<rect x="169.061" y="83.914" transform="matrix(0.8802 0.4746 -0.4746 0.8802 62.8464 -71.4778)" fill="#E8677A" width="7.901" height="9.676"/>
					</g>
					<path fill="#E8677A" d="M178.107,74.007l2.881-5.01c0.472-0.819,0.189-1.865-0.63-2.336l0,0
						c-0.819-0.471-1.865-0.189-2.336,0.63l-2.881,5.01c-0.472,0.819-0.189,1.865,0.63,2.336l0,0
						C176.591,75.108,177.637,74.826,178.107,74.007z"/>
					<path fill="#E8677A" d="M180.749,76.686l2.881-5.01c0.472-0.819,0.189-1.865-0.63-2.336l0,0
						c-0.819-0.471-1.865-0.188-2.336,0.63l-2.881,5.01c-0.472,0.819-0.189,1.865,0.63,2.336l0,0
						C179.232,77.787,180.278,77.504,180.749,76.686z"/>
					<path fill="#E8677A" d="M182.232,79.95l2.881-5.01c0.471-0.819,0.189-1.865-0.63-2.336l0,0
						c-0.819-0.471-1.865-0.189-2.336,0.63l-2.881,5.01c-0.472,0.819-0.189,1.865,0.63,2.336l0,0
						C180.716,81.051,181.762,80.769,182.232,79.95z"/>
					<path fill="#E8677A" d="M183.779,83.235l2.881-5.01c0.471-0.819,0.188-1.865-0.631-2.336l0,0
						c-0.818-0.471-1.864-0.189-2.336,0.63l-2.881,5.01c-0.471,0.819-0.188,1.865,0.631,2.336l0,0
						C182.262,84.336,183.308,84.054,183.779,83.235z"/>
					<circle fill="#E8677A" cx="170.979" cy="79.986" r="2.958"/>
				</g>
				<path fill="#342D3A" d="M176.441,83.998l6.667-3.549c1.177-0.626,1.623-2.088,0.997-3.266l-7.144-13.421
					c-0.626-1.177-2.089-1.624-3.266-0.997l-6.667,3.548c-1.177,0.626-1.623,2.088-0.997,3.266l7.144,13.421
					C173.802,84.178,175.264,84.624,176.441,83.998z"/>
				<g>
					<g>
						<path fill="#E8677A" d="M177.753,71.202l2.643-1.566c0.813-0.482,1.081-1.531,0.6-2.344l0,0
							c-0.482-0.813-1.531-1.081-2.345-0.599l-2.643,1.566c-0.813,0.481-1.081,1.531-0.599,2.344l0,0
							C175.891,71.416,176.94,71.684,177.753,71.202z"/>
						<path fill="#E8677A" d="M179.199,74.573l3.9-2.312c0.813-0.482,1.081-1.531,0.6-2.344l0,0
							c-0.482-0.813-1.532-1.081-2.345-0.599l-3.9,2.312c-0.813,0.482-1.081,1.531-0.599,2.344l0,0
							C177.337,74.786,178.387,75.055,179.199,74.573z"/>
						<path fill="#E8677A" d="M181.585,77.28l2.979-1.766c0.813-0.482,1.082-1.532,0.6-2.344l0,0
							c-0.481-0.813-1.531-1.081-2.344-0.6l-2.979,1.766c-0.813,0.481-1.081,1.531-0.599,2.344l0,0
							C179.723,77.494,180.772,77.762,181.585,77.28z"/>
						<path fill="#E8677A" d="M184.272,79.765l1.811-1.073c0.813-0.482,1.081-1.531,0.6-2.344l0,0
							c-0.482-0.813-1.531-1.081-2.345-0.599l-1.81,1.073c-0.813,0.482-1.081,1.532-0.6,2.344l0,0
							C182.41,79.978,183.46,80.247,184.272,79.765z"/>
					</g>
					<g>
						<path fill="#E8677A" d="M171.382,80.011l-0.045-5.779c-0.008-0.944-0.779-1.705-1.725-1.697l0,0
							c-0.944,0.007-1.705,0.779-1.697,1.724l0.045,5.779c0.007,0.945,0.779,1.705,1.724,1.698l0,0
							C170.629,81.728,171.389,80.956,171.382,80.011z"/>
					</g>
				</g>
				<g>
					<g>
						<path fill="#DDA32F" d="M157.272,131.152l-40.555-13.362l3.125-9.483c1.099-3.336,4.694-5.148,8.029-4.05l25.86,8.521
							l13.155-26.47l11.317,5.26l-11.932,35.099C165.012,130.377,160.996,132.379,157.272,131.152z"/>
					</g>
					
						<rect x="163.314" y="87.607" transform="matrix(0.9118 0.4107 -0.4107 0.9118 52.8136 -62.2896)" fill="#F5C041" width="16.136" height="8.336"/>
				</g>
			</g>
			<g>
				<path fill="#0A102A" d="M127.825,78.698c1.379,6.57,0.552,13.944-3.764,19.086c-5.145,6.131-13.809,7.767-20.514,12.134
					c-8.028,5.229-12.989,14.217-20.914,19.603c-10.124,6.88-25.156,6.24-33.74-2.486s-8.397-24.941,1.203-32.535
					c4.297-3.398,10.17-5.267,12.703-10.124c3.593-6.892-1.116-17.069,4.7-22.224c4.794-4.248,12.135-1.079,18.244,0.847
					c9.993,3.151,18.137,0.988,27.838-1.4C122.969,59.287,126.118,70.56,127.825,78.698z"/>
				
					<rect x="106.209" y="90.988" transform="matrix(-0.9899 0.1419 -0.1419 -0.9899 235.2628 182.048)" fill="#E8677A" width="9.859" height="16.855"/>
				<path fill="#E8677A" d="M121.359,67.715l-19.348,2.774l3.237,22.58l9.814-1.407c5.265-0.754,8.921-5.635,8.166-10.899
					L121.359,67.715z"/>
				<path fill="#BA495F" d="M105.249,93.069l0.629,4.386c0.87,0.179,1.779,0.212,2.701,0.079c2.744-0.393,4.96-2.148,6.049-4.482
					c0.163-0.357,0.311-0.727,0.419-1.105l-0.039-0.275L105.249,93.069z"/>
				<path fill="#0A102A" d="M96.043,71.552l1.664,11.606c1.272-0.021,2.563-0.12,3.87-0.307c10.047-1.44,17.88-7.46,19.906-14.533
					c0.869-3.035-1.103-6.237-4.242-6.573c-0.213-0.023-0.392-0.028-0.523-0.009l-14.062,2.016
					C98.472,64.353,95.512,67.844,96.043,71.552z"/>
				<circle fill="#E8677A" cx="108.593" cy="79.943" r="3.084"/>
				<path fill="#E8677A" d="M123.121,78.985l0.734-0.105c0.714-0.103,1.209-0.764,1.106-1.477l0,0
					c-0.102-0.713-0.763-1.209-1.477-1.106l-0.735,0.105c-0.713,0.102-1.209,0.763-1.106,1.477l0,0
					C121.746,78.592,122.407,79.087,123.121,78.985z"/>
			</g>
			<g>
				<path fill="#F5C041" d="M158.654,145.982l-22.14,25.439c-1.31,1.5-3.729,1.19-4.61-0.59l-7.42-9.19
					c-7.319-9.069-13-19.34-16.77-30.33c-0.78-2.21-1.46-4.46-2.07-6.729l-3.34-12.5c-1.16-2.86,0.57-6.06,3.59-6.67l8.83-1.771
					l0.36-0.069l7.21-1.44c0,0,18.59,5.92,17.46,17.72l4.26,11.66L158.654,145.982z"/>
				<path fill="#DDA32F" d="M115.654,123.632c-1.56,3.4-4.51,6.43-7.939,7.68c-0.78-2.21-1.46-4.46-2.07-6.729l-3.34-12.5
					c-1.16-2.86,0.57-6.06,3.59-6.67l8.83-1.771C117.814,109.942,118.555,117.332,115.654,123.632z"/>
			</g>
			<g>
				<g>
					
						<rect x="93.539" y="19.433" transform="matrix(0.9897 0.143 -0.143 0.9897 4.5076 -13.6942)" fill="#E8677A" width="8.005" height="10.169"/>
					<g>
						<path fill="#E8677A" d="M107.898,8.805c-0.937-0.19-1.864,0.38-2.23,1.263l-0.975,2.352c-0.396-0.164-0.803-0.251-1.208-0.276
							l1.562-8.791c0.136-0.766-0.255-1.567-0.984-1.836c-0.958-0.354-1.954,0.248-2.124,1.206l-0.957,5.391l0.841-6.38
							c0.12-0.912-0.707-1.682-1.419-1.732l0,0c-1.56,0.006-1.692,1.075-1.813,1.988l-1.225,9.292
							c-0.089,0.01-0.076,0.008-0.165,0.018l-2.706-7.382c-0.27-0.733-1.012-1.23-1.781-1.096c-1.011,0.176-1.569,1.203-1.234,2.119
							l0.818,2.231c-0.535-0.476-1.364-0.579-2.039-0.07c-0.561,0.422-0.731,1.192-0.49,1.851l2.998,8.177
							c0.015,0.038,0.036,0.071,0.052,0.107c-0.092,1.458,0.235,2.997,1.385,4.483c1.386,1.792,3.586,2.839,5.846,2.676
							c3.561-0.255,5.444-3.191,6.635-6.196c0.748-1.888,2.666-6.693,2.666-6.693C109.817,10.375,109.162,9.062,107.898,8.805z"/>
						
							<line fill="none" stroke="#BA495F" stroke-linecap="round" stroke-linejoin="round" stroke-miterlimit="10" x1="92.298" y1="7.169" x2="94.405" y2="12.703"/>
						
							<line fill="none" stroke="#BA495F" stroke-linecap="round" stroke-linejoin="round" stroke-miterlimit="10" x1="101.432" y1="4.994" x2="100.591" y2="10.817"/>
						<path fill="none" stroke="#BA495F" stroke-linecap="round" stroke-linejoin="round" stroke-miterlimit="10" d="M99.344,15.019
							c0.471-2.022,2.493-3.28,4.516-2.809"/>
					</g>
				</g>
				<g>
					<g>
						<path fill="#F5C041" d="M115.047,114.134c-3.57,2.761-8.702,2.104-11.463-1.465L82.558,85.481
							c-1.404-1.816-2.009-4.127-1.671-6.399l10.471-54.673l11.076,2.631l-4.887,51.108l18.965,24.522
							C119.273,106.24,118.617,111.372,115.047,114.134L115.047,114.134z"/>
					</g>
					
						<rect x="89.178" y="24.104" transform="matrix(0.9897 0.143 -0.143 0.9897 5.0836 -13.5671)" fill="#FFC95C" width="15.55" height="8.977"/>
				</g>
			</g>
			<g>
				<g>
					<g>
						<polygon fill="#4655B1" points="47.933,32.349 42.177,4.435 74.474,0 79.35,23.645 						"/>
					</g>
					<g>
						<path fill="none" stroke="#373845" stroke-linecap="round" stroke-linejoin="round" stroke-miterlimit="10" d="M75.083,19.719
							l0.431-0.117c13.508-3.666,23.552-9.973,22.435-14.088l0,0C96.832,1.398,84.977,1.033,71.47,4.698l-0.431,0.117"/>
						
							<circle fill="none" stroke="#373845" stroke-linecap="round" stroke-linejoin="round" stroke-miterlimit="10" cx="69.205" cy="4.5" r="1.85"/>
						
							<circle fill="none" stroke="#373845" stroke-linecap="round" stroke-linejoin="round" stroke-miterlimit="10" cx="73.236" cy="19.606" r="1.85"/>
					</g>
				</g>
				<g>
					<g>
						<polygon fill="#48B7AE" points="51.483,62.562 29.991,32.45 66.001,10.223 84.207,35.73 						"/>
					</g>
					<g>
						<path fill="none" stroke="#373845" stroke-linecap="round" stroke-linejoin="round" stroke-miterlimit="10" d="M77.08,33.311
							l0.45-0.365C91.639,21.501,100.25,8.738,96.763,4.439l0,0c-3.487-4.299-17.752,1.494-31.86,12.938l-0.45,0.365"/>
						
							<circle fill="none" stroke="#373845" stroke-linecap="round" stroke-linejoin="round" stroke-miterlimit="10" cx="62.109" cy="18.331" r="2.402"/>
						
							<circle fill="none" stroke="#373845" stroke-linecap="round" stroke-linejoin="round" stroke-miterlimit="10" cx="74.829" cy="34.146" r="2.402"/>
					</g>
				</g>
			</g>
		</g>
		<g>
			<g>
				<g>
					<rect x="191.234" y="164.946" fill="#6BDBD5" width="27.754" height="28.454"/>
					<rect x="191.234" y="164.946" fill="#48B7AE" width="24.109" height="28.454"/>
					<rect x="191.234" y="174.583" fill="#6BDBD5" width="24.109" height="9.9"/>
				</g>
				<g>
					
						<rect x="175.067" y="164.899" transform="matrix(0.4058 -0.914 0.914 0.4058 -54.5775 274.4027)" fill="#E8677A" width="17.338" height="28.548"/>
					
						<rect x="175.744" y="165.94" transform="matrix(0.4058 -0.914 0.914 0.4058 -55.8034 274.598)" fill="#F97891" width="15.061" height="28.548"/>
					
						<rect x="176.074" y="175.393" transform="matrix(0.4058 -0.914 0.914 0.4058 -55.7435 274.9789)" fill="#E8677A" width="15.063" height="9.933"/>
				</g>
				<path fill="#6BDBD5" d="M125.539,173.979c2.457,0.042,4.57-2.432,6.985-1.978c2.56,0.48,3.441,3.782,5.628,5.198
					c3.588,2.324,9.253-1.157,12.326,1.815c1.339,1.297,1.719,3.527,3.383,4.367c1.719,0.867,3.936-0.229,5.672,0.601
					c2.131,1.018,1.998,4.384,0.297,6.021s-4.233,1.985-6.586,2.18c-9.86,0.815-35.01,3.287-41.308-6.817
					c-2.194-3.52-2.264-13.16,1.098-15.975C118.761,164.598,120.293,173.889,125.539,173.979z"/>
			</g>
			<g>
				
					<line fill="none" stroke="#2E353B" stroke-linecap="round" stroke-linejoin="round" stroke-miterlimit="10" x1="248.168" y1="234.398" x2="90.894" y2="234.398"/>
				<g>
					<g>
						<circle fill="#2E353B" cx="133.751" cy="223.834" r="10.277"/>
						<circle fill="#FFFFFF" cx="133.751" cy="223.834" r="6.207"/>
					</g>
					<g>
						<circle fill="#2E353B" cx="200.723" cy="223.834" r="10.276"/>
						<circle fill="#FFFFFF" cx="200.723" cy="223.834" r="6.206"/>
					</g>
					<g>
						<path fill="none" stroke="#2E353B" stroke-linecap="round" stroke-linejoin="round" stroke-miterlimit="10" d="M218.988,193.4
							h-97.664c-5.335,0-9.752-4.146-10.09-9.472l-4.848-54.813h128.025l-5.338,54.877C228.705,189.291,224.3,193.4,218.988,193.4z"
							/>
						
							<line fill="none" stroke="#2E353B" stroke-linecap="round" stroke-linejoin="round" stroke-miterlimit="10" x1="120.854" y1="129.115" x2="121.398" y2="193.4"/>
						
							<line fill="none" stroke="#2E353B" stroke-linecap="round" stroke-linejoin="round" stroke-miterlimit="10" x1="139.752" y1="129.115" x2="139.752" y2="193.4"/>
						
							<line fill="none" stroke="#2E353B" stroke-linecap="round" stroke-linejoin="round" stroke-miterlimit="10" x1="158.649" y1="129.115" x2="158.649" y2="193.4"/>
						
							<line fill="none" stroke="#2E353B" stroke-linecap="round" stroke-linejoin="round" stroke-miterlimit="10" x1="177.548" y1="129.115" x2="177.548" y2="193.4"/>
						
							<line fill="none" stroke="#2E353B" stroke-linecap="round" stroke-linejoin="round" stroke-miterlimit="10" x1="196.446" y1="129.115" x2="196.446" y2="193.4"/>
						
							<line fill="none" stroke="#2E353B" stroke-linecap="round" stroke-linejoin="round" stroke-miterlimit="10" x1="215.344" y1="129.115" x2="215.344" y2="193.4"/>
						<polyline fill="none" stroke="#2E353B" stroke-linecap="round" stroke-linejoin="round" stroke-miterlimit="10" points="
							107.323,138.502 120.948,138.502 139.749,138.502 158.648,138.502 177.547,138.502 196.445,138.502 215.344,138.502 
							233.377,138.502 						"/>
						<polyline fill="none" stroke="#2E353B" stroke-linecap="round" stroke-linejoin="round" stroke-miterlimit="10" points="
							232.08,151.724 215.344,151.724 196.445,151.724 177.547,151.724 158.648,151.724 139.749,151.724 121.068,151.724 
							108.506,151.724 						"/>
						<polyline fill="none" stroke="#2E353B" stroke-linecap="round" stroke-linejoin="round" stroke-miterlimit="10" points="
							230.778,164.946 215.344,164.946 196.445,164.946 177.547,164.946 158.648,164.946 139.749,164.946 121.188,164.946 
							109.688,164.946 						"/>
						<polyline fill="none" stroke="#2E353B" stroke-linecap="round" stroke-linejoin="round" stroke-miterlimit="10" points="
							229.481,178.168 215.344,178.168 196.445,178.168 177.547,178.168 158.648,178.168 139.749,178.168 121.303,178.168 
							110.87,178.168 						"/>
						<path fill="none" stroke="#2E353B" stroke-linecap="round" stroke-linejoin="round" stroke-miterlimit="10" d="
							M88.953,119.854l16.296-2.628l7.054,85.969c0.349,5.821,5.171,10.363,11.003,10.363h93.673"/>
					</g>
				</g>
			</g>
		</g>
		<g>
			<g>
				
					<rect x="244.456" y="167.751" transform="matrix(0.5768 0.8169 -0.8169 0.5768 245.3306 -131.1076)" fill="#E8677A" width="9.504" height="6.967"/>
				<g>
					
						<rect x="247.796" y="172.734" transform="matrix(0.8013 -0.5983 0.5983 0.8013 -56.1053 186.8891)" fill="#F5C041" width="11" height="10.346"/>
					<path fill="#342D3A" d="M284.18,171.911l-27.109,20.242l-8.477-11.352l8.814-6.581l14.936-1.168
						c2.342-0.631,8.551-5.542,10.001-3.599L284.18,171.911z"/>
					
						<rect x="254.656" y="181.718" transform="matrix(0.8013 -0.5983 0.5983 0.8013 -55.6999 198.9083)" fill="#F5C041" width="33.833" height="3.166"/>
				</g>
				<g>
					<path fill="none" stroke="#2E353B" stroke-linecap="round" stroke-linejoin="round" stroke-miterlimit="10" d="
						M257.377,164.193c0.265-1.019,1.014-2.248,2.025-1.957c0.764,0.219,1.01,1.168,1.076,1.96c0.296,3.528-0.271,8.05-2.484,10.893
						C256.098,172.282,256.551,167.377,257.377,164.193z"/>
					<path fill="none" stroke="#2E353B" stroke-linecap="round" stroke-linejoin="round" stroke-miterlimit="10" d="
						M265.546,167.234c0.899-0.545,2.294-0.902,2.815,0.011c0.395,0.691-0.092,1.542-0.598,2.156
						c-2.25,2.733-5.813,5.575-9.381,6.065C258.983,172.134,262.731,168.938,265.546,167.234z"/>
				</g>
			</g>
			<path fill="#4655B1" d="M245.717,176.468l-64.76-49.027l9.441-9.98c4.504-4.761,12.015-4.97,16.776-0.466l47.911,49.1
				L245.717,176.468z"/>
			
				<line fill="none" stroke="#FFFFFF" stroke-width="0.75" stroke-linecap="round" stroke-linejoin="round" stroke-miterlimit="10" x1="245.754" y1="172.382" x2="191.234" y2="129.115"/>
		</g>
	</g>
</g>
</svg>
